<svg width="110" height="32" viewBox="0 0 110 32" fill="none" xmlns="http://www.w3.org/2000/svg">
<path d="M58.4874 18.1303C58.4874 17.7116 58.4028 17.393 58.0895 17.1109C57.717 16.7832 57.4037 16.3827 57.0142 15.955C57.4037 15.5272 57.7508 15.1085 58.1318 14.7444C58.4027 14.4896 58.4874 14.2074 58.4874 13.8252C58.4705 10.585 58.4705 7.33569 58.4705 4.09549C58.4705 3.77693 58.3858 3.55849 58.1657 3.33095C57.2767 2.40258 56.4046 1.456 55.5411 0.491227C55.2363 0.145363 54.923 0.0179398 54.4573 0.0270415C51.1131 0.0361432 42.6296 0.0179398 41.6813 0.0270415C41.6559 0.263685 41.6221 0.436617 41.6221 0.636854C41.6136 3.95897 41.5967 7.28108 41.5967 10.5941C41.5967 17.4476 41.5967 24.3012 41.6051 31.1548C41.6051 31.9375 41.6051 31.892 42.3163 31.8829C46.4311 31.8738 50.5543 31.892 54.669 31.8829C54.9484 31.8829 55.1685 31.8374 55.3802 31.6007C56.2946 30.5632 57.2344 29.5529 58.1826 28.5517C58.3943 28.3241 58.4874 28.1057 58.4789 27.7871C58.462 26.7951 58.462 25.803 58.462 24.82C58.4789 22.5992 58.4705 20.3602 58.4874 18.1303ZM45.8638 5.90672C48.3191 5.88852 50.6305 5.92493 52.9757 5.90672C52.9926 8.29136 52.9588 10.6851 52.9757 13.0606C50.9776 13.0788 49.098 13.0424 47.0999 13.0606C47.0999 12.7603 47.0915 12.4417 47.0915 12.196C47.0915 10.6669 47.083 9.12872 47.0915 7.59964C47.0915 7.26287 47.0153 7.00803 46.7697 6.78959C46.4903 6.54384 46.2279 6.26169 45.8638 5.90672ZM53.0434 25.5572C53.035 26.076 53.0096 26.076 52.5016 26.076C52.1206 26.076 48.8356 26.076 47.5741 26.0578C47.4301 26.0578 47.2947 26.0851 47.1253 26.076C47.1084 23.7187 47.1423 21.1975 47.1253 18.8038C49.1404 18.7856 51.0369 18.822 53.0434 18.8038C53.0434 19.0768 53.0519 19.3863 53.0519 19.6138C53.0519 21.5525 53.0434 23.4912 53.0434 25.4298C53.0434 25.4753 53.0434 25.5208 53.0434 25.5572Z" fill="white"/>
<path d="M78.444 26.2234C78.1731 24.7762 77.9022 23.3382 77.6313 21.891C77.4196 20.7715 77.2079 19.652 76.9878 18.5325C76.9031 18.1138 77.0047 17.8043 77.3095 17.504C77.9615 16.8578 78.5541 16.1569 79.1976 15.5016C79.4008 15.2923 79.477 15.0829 79.4685 14.7917C79.4516 13.7996 79.4516 12.8075 79.4516 11.8245C79.4516 9.25786 79.4516 6.70029 79.46 4.13362C79.46 3.79686 79.3754 3.55111 79.1468 3.31447C78.207 2.34969 77.2841 1.36671 76.3782 0.374629C76.1327 0.101579 75.8702 0.0196641 75.5231 0.0287658C74.7103 0.0469691 73.8975 0.00146076 73.0847 0.00146076C69.8166 -0.00764091 66.5401 0.0287658 63.272 0.0287658C63.0604 0.0287658 62.8572 0.0196641 62.6624 0.0287658C62.5354 0.802408 62.5947 31.1838 62.7217 31.8937C64.4658 31.9392 66.2184 31.8937 68.0387 31.8937C68.1403 27.5158 68.0895 23.1379 68.0979 18.8055C69.2833 18.7964 70.4093 18.8146 71.6031 18.8055C72.4243 23.1288 73.2541 27.5522 74.0753 31.8937C75.8956 31.8846 77.6905 31.9028 79.5193 31.8937C79.3584 31.0018 79.1976 30.0825 79.0367 29.2269C78.8335 28.2257 78.6303 27.2246 78.444 26.2234ZM73.9822 12.58C73.9822 12.7256 73.9398 12.8712 73.906 13.0715C71.9502 13.0806 70.0368 13.1261 68.0725 13.0715C68.0556 12.7984 68.0387 12.5618 68.0387 12.3615C68.0302 10.8507 68.0133 9.33068 68.0387 7.8198C68.0471 7.32831 67.9117 6.96424 67.5815 6.65478C67.3529 6.44545 67.1582 6.1724 66.9296 5.91755C67.3614 5.78102 72.7461 5.80833 73.9398 5.91755C73.9652 6.07228 74.016 6.1815 74.016 6.35443C74.016 8.42051 73.9991 10.5048 73.9822 12.58Z" fill="white"/>
<path d="M106.916 0.327661C106.687 0.0819155 106.459 0.0273054 106.112 0.0273054C101.938 0.0455088 97.7636 0.0182037 93.5896 0.0273054C93.4542 0.0273054 93.3102 0.0182037 93.1155 0.0455087C93.2425 10.6672 93.0224 21.2615 93.1155 31.9014C93.3526 31.9196 93.505 31.9014 93.632 31.9014C97.806 31.8832 101.98 31.9014 106.154 31.9014C106.501 31.9014 106.73 31.7739 106.95 31.5282C107.746 30.6544 108.55 29.7989 109.346 28.9342C109.998 28.2334 109.998 28.2334 109.998 27.214C110.006 19.5413 109.981 11.8777 109.998 4.20497C109.998 3.84091 109.93 3.56786 109.71 3.33121C108.779 2.33003 107.839 1.32884 106.916 0.327661ZM104.545 26.0763C102.539 26.0854 100.591 26.1309 98.5933 26.0763C98.5933 25.8214 98.5933 25.6121 98.5933 25.421C98.5849 20.4879 98.5679 15.5548 98.5595 10.6217C98.5595 9.62957 98.5595 8.63749 98.5849 7.65451C98.5933 7.22673 98.4579 6.90817 98.17 6.63512C97.933 6.40758 97.7213 6.17094 97.4758 5.90699C98.0092 5.72495 103.995 5.72495 104.554 5.90699C104.605 12.5876 104.495 19.2955 104.545 26.0763Z" fill="white"/>
<path d="M6.47732 13.0706C6.41806 13.0706 6.35879 13.1252 6.22333 13.1798C6.58739 13.5803 6.90065 13.9352 7.22238 14.2811C8.50929 15.6645 9.7962 17.0389 11.1001 18.4133C11.3286 18.6499 11.4048 18.8956 11.3964 19.2324C11.3879 21.3076 11.3964 23.3919 11.3964 25.467C11.3964 26.0951 11.3625 26.0769 10.7953 26.0769C9.16968 26.0769 7.54411 26.086 5.91853 26.0769C5.76613 26.0769 5.61374 26.0951 5.43594 26.0678C5.43594 25.8402 5.43594 25.6673 5.43594 25.4944C5.44441 21.9174 5.43594 10.0306 5.43594 7.66418C5.43594 7.30921 5.36821 7.03616 5.08881 6.80862C4.80941 6.57198 4.58928 6.20791 4.32682 5.90755C5.07188 5.75282 10.99 5.75282 11.4048 5.90755C11.4387 6.99975 11.3456 8.15567 11.4048 9.28427C13.2506 9.27517 15.0116 9.29338 16.7642 9.28427C16.7896 9.18415 16.8404 9.12955 16.8404 9.07493C16.8404 7.36382 16.8573 5.65271 16.8404 3.95069C16.8404 3.77776 16.7134 3.56842 16.6033 3.441C15.6296 2.3761 14.6475 1.32941 13.6654 0.282718C13.4876 0.0915832 13.2844 0.0278715 13.0389 0.0369732C9.98247 0.0551766 6.93451 0.0460749 3.8781 0.0369732C3.4971 0.0369732 3.22617 0.200803 2.98064 0.473854C2.10859 1.42953 1.245 2.38521 0.356018 3.32268C0.110488 3.56842 -0.00804321 3.82327 0.000423326 4.17823C0.00888986 5.17032 0.000423326 25.5035 0.000423326 27.7789C0.000423326 28.0792 0.025823 28.3432 0.245953 28.5707C1.21114 29.5901 2.16786 30.6186 3.10764 31.6562C3.3193 31.8837 3.51404 31.9019 3.81036 31.8928C4.53002 31.8746 10.6767 31.8928 13.0304 31.8928C13.3437 31.8928 13.5553 31.8473 13.7839 31.6016C14.6814 30.6004 15.5958 29.6083 16.5186 28.6435C16.7642 28.3887 16.8404 28.1338 16.8404 27.7789C16.8319 23.0369 16.8404 18.304 16.8404 13.5621C16.8404 13.4164 16.815 13.2617 16.798 13.0706C13.3352 13.0706 9.90627 13.0706 6.47732 13.0706Z" fill="white"/>
<path d="M37.8052 26.0777C33.9868 26.0959 30.1684 26.1414 26.4092 26.0777C26.3923 23.6475 26.4261 21.2356 26.4092 18.8054C29.127 18.7872 31.8363 18.8236 34.5625 18.8054C34.5456 16.8759 34.5964 14.9736 34.554 13.0623C33.5804 13.0532 27.3321 13.1806 26.4092 13.0623C26.4092 12.8074 26.4092 12.4525 26.4092 12.2613C26.4177 10.8051 26.3753 9.34878 26.4092 7.89252C26.4261 7.32821 26.3415 6.88223 25.9012 6.53637C25.6726 6.35433 25.5033 6.22691 25.2239 5.89925C29.491 5.87194 33.6227 5.92655 37.7967 5.89925C37.7882 3.997 37.8052 1.95823 37.7967 0.0195691C37.5681 0.0195691 37.3395 0.0195691 37.1448 0.0195691C34.3593 0.0195691 26.1552 0.0377725 24.8429 0.0195691C24.4958 0.0104674 24.1994 0.0195691 23.9962 0.338128C23.9539 0.401839 23.8946 0.447348 23.8439 0.501958C23.0057 1.40302 22.159 2.30409 21.3208 3.20515C21.0499 3.48731 20.9398 3.78766 20.9568 4.22454C20.9991 5.11651 20.9568 25.2949 20.9568 27.7069C20.9568 28.0072 20.9991 28.2257 21.2277 28.4714C22.2013 29.4726 23.1411 30.5193 24.0724 31.5569C24.2841 31.7935 24.5042 31.8845 24.7921 31.8845C28.983 31.8572 33.174 31.9027 37.3734 31.8845C37.5088 31.8845 37.6443 31.7753 37.8306 31.748C37.8136 29.8548 37.856 27.9799 37.8052 26.0777Z" fill="white"/>
<path d="M89.0099 0.509118C89.0099 0.345287 88.976 0.226966 88.9591 0.0358306C87.1642 0.0449322 85.4455 0.0267289 83.5913 0.0358306C83.5998 10.6666 83.5828 21.3428 83.5913 31.9008C84.3025 32.0282 88.6289 32.0373 89.0099 31.9008C89.0099 31.6641 89.0014 31.291 89.0099 31.0361C89.0268 26.0575 89.0268 5.70617 89.0099 0.509118Z" fill="white"/>
</svg>
