<svg width="110" height="32" viewBox="0 0 110 32" fill="none" xmlns="http://www.w3.org/2000/svg">
<path d="M58.4874 18.1308C58.4874 17.7121 58.4028 17.3935 58.0895 17.1114C57.717 16.7837 57.4037 16.3832 57.0142 15.9555C57.4037 15.5277 57.7508 15.109 58.1318 14.7449C58.4027 14.4901 58.4874 14.2079 58.4874 13.8257C58.4705 10.5855 58.4705 7.33617 58.4705 4.09598C58.4705 3.77742 58.3858 3.55898 58.1657 3.33144C57.2767 2.40307 56.4046 1.45649 55.5411 0.491715C55.2363 0.145852 54.923 0.0184281 54.4573 0.0275298C51.1131 0.0366314 42.6296 0.0184281 41.6813 0.0275298C41.6559 0.264173 41.6221 0.437105 41.6221 0.637342C41.6136 3.95945 41.5967 7.28156 41.5967 10.5946C41.5967 17.4481 41.5967 24.3017 41.6051 31.1553C41.6051 31.938 41.6051 31.8925 42.3163 31.8834C46.4311 31.8743 50.5543 31.8925 54.669 31.8834C54.9484 31.8834 55.1685 31.8379 55.3802 31.6012C56.2946 30.5636 57.2344 29.5534 58.1826 28.5522C58.3943 28.3246 58.4874 28.1062 58.4789 27.7876C58.462 26.7956 58.462 25.8035 58.462 24.8205C58.4789 22.5997 58.4705 20.3607 58.4874 18.1308ZM45.8638 5.90721C48.3191 5.88901 50.6305 5.92542 52.9757 5.90721C52.9926 8.29185 52.9588 10.6856 52.9757 13.0611C50.9776 13.0793 49.098 13.0429 47.0999 13.0611C47.0999 12.7608 47.0915 12.4422 47.0915 12.1965C47.0915 10.6674 47.083 9.1292 47.0915 7.60012C47.0915 7.26336 47.0153 7.00851 46.7697 6.79007C46.4903 6.54433 46.2279 6.26218 45.8638 5.90721ZM53.0434 25.5577C53.035 26.0765 53.0096 26.0765 52.5016 26.0765C52.1206 26.0765 48.8356 26.0765 47.5741 26.0583C47.4301 26.0583 47.2947 26.0856 47.1253 26.0765C47.1084 23.7192 47.1423 21.198 47.1253 18.8043C49.1404 18.7861 51.0369 18.8225 53.0434 18.8043C53.0434 19.0773 53.0519 19.3868 53.0519 19.6143C53.0519 21.553 53.0434 23.4916 53.0434 25.4303C53.0434 25.4758 53.0434 25.5213 53.0434 25.5577Z" fill="black"/>
<path d="M78.4437 26.2234C78.1728 24.7762 77.9019 23.3382 77.6309 21.891C77.4193 20.7715 77.2076 19.652 76.9875 18.5325C76.9028 18.1138 77.0044 17.8043 77.3092 17.504C77.9611 16.8578 78.5538 16.1569 79.1973 15.5016C79.4005 15.2923 79.4767 15.0829 79.4682 14.7917C79.4513 13.7996 79.4513 12.8075 79.4513 11.8245C79.4513 9.25786 79.4513 6.70029 79.4597 4.13362C79.4597 3.79686 79.3751 3.55111 79.1465 3.31447C78.2067 2.34969 77.2838 1.36671 76.3779 0.374629C76.1324 0.101579 75.8699 0.0196641 75.5228 0.0287658C74.71 0.0469691 73.8972 0.00146076 73.0844 0.00146076C69.8163 -0.00764091 66.5398 0.0287658 63.2717 0.0287658C63.06 0.0287658 62.8568 0.0196641 62.6621 0.0287658C62.5351 0.802408 62.5944 31.1838 62.7214 31.8937C64.4655 31.9392 66.2181 31.8937 68.0384 31.8937C68.14 27.5158 68.0892 23.1379 68.0976 18.8055C69.283 18.7964 70.409 18.8146 71.6028 18.8055C72.424 23.1288 73.2538 27.5522 74.075 31.8937C75.8953 31.8846 77.6902 31.9028 79.519 31.8937C79.3581 31.0018 79.1973 30.0825 79.0364 29.2269C78.8332 28.2257 78.63 27.2246 78.4437 26.2234ZM73.9819 12.58C73.9819 12.7256 73.9395 12.8712 73.9057 13.0715C71.9499 13.0806 70.0365 13.1261 68.0722 13.0715C68.0553 12.7984 68.0384 12.5618 68.0384 12.3615C68.0299 10.8507 68.013 9.33068 68.0384 7.8198C68.0468 7.32831 67.9114 6.96424 67.5812 6.65478C67.3526 6.44545 67.1578 6.1724 66.9293 5.91755C67.361 5.78102 72.7458 5.80833 73.9395 5.91755C73.9649 6.07228 74.0157 6.1815 74.0157 6.35443C74.0157 8.42051 73.9988 10.5048 73.9819 12.58Z" fill="black"/>
<path d="M106.916 0.327661C106.688 0.0819155 106.459 0.0273054 106.112 0.0273054C101.938 0.0455088 97.7641 0.0182037 93.5901 0.0273054C93.4546 0.0273054 93.3107 0.0182037 93.116 0.0455087C93.243 10.6672 93.0229 21.2615 93.116 31.9014C93.3531 31.9196 93.5055 31.9014 93.6324 31.9014C97.8064 31.8832 101.98 31.9014 106.154 31.9014C106.502 31.9014 106.73 31.7739 106.95 31.5282C107.746 30.6544 108.55 29.7989 109.346 28.9342C109.998 28.2334 109.998 28.2334 109.998 27.214C110.007 19.5413 109.981 11.8777 109.998 4.20497C109.998 3.84091 109.931 3.56786 109.71 3.33121C108.779 2.33003 107.839 1.32884 106.916 0.327661ZM104.546 26.0763C102.539 26.0854 100.592 26.1309 98.5938 26.0763C98.5938 25.8214 98.5938 25.6121 98.5938 25.421C98.5854 20.4879 98.5684 15.5548 98.56 10.6217C98.56 9.62957 98.56 8.63749 98.5854 7.65451C98.5938 7.22673 98.4584 6.90817 98.1705 6.63512C97.9334 6.40758 97.7218 6.17094 97.4763 5.90699C98.0096 5.72495 103.995 5.72495 104.554 5.90699C104.605 12.5876 104.495 19.2955 104.546 26.0763Z" fill="black"/>
<path d="M6.47732 13.0708C6.41806 13.0708 6.35879 13.1254 6.22333 13.18C6.58739 13.5805 6.90065 13.9355 7.22238 14.2813C8.50929 15.6648 9.7962 17.0391 11.1001 18.4135C11.3286 18.6501 11.4048 18.8959 11.3964 19.2326C11.3879 21.3078 11.3964 23.3921 11.3964 25.4673C11.3964 26.0953 11.3625 26.0771 10.7953 26.0771C9.16968 26.0771 7.54411 26.0862 5.91853 26.0771C5.76613 26.0771 5.61374 26.0953 5.43594 26.068C5.43594 25.8405 5.43594 25.6675 5.43594 25.4946C5.44441 21.9176 5.43594 10.0309 5.43594 7.66442C5.43594 7.30945 5.36821 7.0364 5.08881 6.80886C4.80941 6.57222 4.58928 6.20815 4.32682 5.9078C5.07188 5.75307 10.99 5.75307 11.4048 5.9078C11.4387 7 11.3456 8.15591 11.4048 9.28452C13.2506 9.27542 15.0116 9.29362 16.7642 9.28452C16.7896 9.1844 16.8404 9.12979 16.8404 9.07518C16.8404 7.36406 16.8573 5.65295 16.8404 3.95094C16.8404 3.77801 16.7134 3.56867 16.6033 3.44124C15.6296 2.37635 14.6475 1.32965 13.6654 0.282963C13.4876 0.0918274 13.2844 0.0281157 13.0389 0.0372174C9.98247 0.0554207 6.93451 0.046319 3.8781 0.0372174C3.4971 0.0372174 3.22617 0.201047 2.98064 0.474098C2.10859 1.42977 1.245 2.38545 0.356018 3.32292C0.110488 3.56867 -0.00804321 3.82351 0.000423326 4.17848C0.00888986 5.17056 0.000423326 25.5037 0.000423326 27.7791C0.000423326 28.0795 0.025823 28.3434 0.245953 28.571C1.21114 29.5903 2.16786 30.6188 3.10764 31.6564C3.3193 31.884 3.51404 31.9022 3.81036 31.8931C4.53002 31.8749 10.6767 31.8931 13.0304 31.8931C13.3437 31.8931 13.5553 31.8476 13.7839 31.6018C14.6814 30.6006 15.5958 29.6086 16.5186 28.6438C16.7642 28.3889 16.8404 28.1341 16.8404 27.7791C16.8319 23.0371 16.8404 18.3043 16.8404 13.5623C16.8404 13.4167 16.815 13.2619 16.798 13.0708C13.3352 13.0708 9.90627 13.0708 6.47732 13.0708Z" fill="black"/>
<path d="M37.8055 26.0779C33.9871 26.0961 30.1687 26.1416 26.4095 26.0779C26.3926 23.6478 26.4265 21.2358 26.4095 18.8057C29.1273 18.7875 31.8366 18.8239 34.5628 18.8057C34.5459 16.8761 34.5967 14.9739 34.5543 13.0625C33.5807 13.0534 27.3324 13.1808 26.4095 13.0625C26.4095 12.8077 26.4095 12.4527 26.4095 12.2616C26.418 10.8053 26.3757 9.34903 26.4095 7.89276C26.4265 7.32846 26.3418 6.88247 25.9015 6.53661C25.6729 6.35458 25.5036 6.22715 25.2242 5.89949C29.4913 5.87219 33.623 5.9268 37.797 5.89949C37.7885 3.99724 37.8055 1.95847 37.797 0.0198133C37.5684 0.0198133 37.3398 0.0198133 37.1451 0.0198133C34.3596 0.0198133 26.1555 0.0380166 24.8432 0.0198133C24.4961 0.0107116 24.1998 0.0198133 23.9966 0.338372C23.9542 0.402083 23.895 0.447592 23.8442 0.502202C23.006 1.40327 22.1593 2.30433 21.3211 3.2054C21.0502 3.48755 20.9401 3.78791 20.9571 4.22479C20.9994 5.11675 20.9571 25.2952 20.9571 27.7071C20.9571 28.0075 20.9994 28.2259 21.228 28.4716C22.2016 29.4728 23.1414 30.5195 24.0728 31.5571C24.2844 31.7938 24.5045 31.8848 24.7924 31.8848C28.9833 31.8575 33.1743 31.903 37.3737 31.8848C37.5091 31.8848 37.6446 31.7755 37.8309 31.7482C37.8139 29.8551 37.8563 27.9802 37.8055 26.0779Z" fill="black"/>
<path d="M89.0098 0.509362C89.0098 0.345532 88.976 0.22721 88.959 0.0360747C87.1641 0.0451764 85.4454 0.026973 83.5913 0.0360747C83.5997 10.6668 83.5828 21.3431 83.5913 31.901C84.3024 32.0285 88.6288 32.0376 89.0098 31.901C89.0098 31.6644 89.0014 31.2912 89.0098 31.0364C89.0268 26.0578 89.0268 5.70642 89.0098 0.509362Z" fill="black"/>
</svg>
