<svg width="16" height="16" viewBox="0 0 16 16" fill="none" xmlns="http://www.w3.org/2000/svg">
<g clip-path="url(#clip0_1323_3609)">
<path d="M7.99911 13.3555C7.69758 13.3555 7.45312 13.5999 7.45312 13.9015V15.4538C7.45312 15.7553 7.69758 15.9998 7.99911 15.9998C8.30071 15.9998 8.54509 15.7553 8.54509 15.4538V13.9015C8.54509 13.5999 8.30064 13.3555 7.99911 13.3555Z" fill="#333333"/>
<path d="M7.99911 2.64446C8.30071 2.64446 8.54509 2.40001 8.54509 2.09848V0.545986C8.54509 0.244456 8.30071 0 7.99911 0C7.69758 0 7.45312 0.244456 7.45312 0.545986V2.09848C7.45312 2.40001 7.69758 2.64446 7.99911 2.64446Z" fill="#333333"/>
<path d="M3.44073 11.7848L2.34265 12.8823C2.12935 13.0954 2.12927 13.4412 2.34243 13.6544C2.44908 13.761 2.58885 13.8144 2.72862 13.8144C2.86832 13.8144 3.00795 13.7611 3.1146 13.6546L4.21268 12.5571C4.42598 12.3439 4.42605 11.9982 4.2129 11.785C3.9996 11.5717 3.65396 11.5717 3.44073 11.7848Z" fill="#333333"/>
<path d="M12.1718 4.37314C12.3115 4.37314 12.4512 4.31985 12.5578 4.21328L13.6558 3.11577C13.869 2.90255 13.8691 2.5569 13.6559 2.3436C13.4427 2.13031 13.0971 2.13023 12.8838 2.34353L11.7858 3.44104C11.5726 3.65419 11.5725 3.99991 11.7857 4.21313C11.8922 4.31985 12.032 4.37314 12.1718 4.37314Z" fill="#333333"/>
<path d="M2.64432 8.00009C2.64432 7.69856 2.39986 7.4541 2.09833 7.4541H0.545986C0.244456 7.4541 0 7.69856 0 8.00009C0 8.30161 0.244456 8.54607 0.545986 8.54607H2.09833C2.39986 8.54607 2.64432 8.30161 2.64432 8.00009Z" fill="#333333"/>
<path d="M15.4543 7.4541H13.9013C13.5997 7.4541 13.3553 7.69856 13.3553 8.00009C13.3553 8.30161 13.5997 8.54607 13.9013 8.54607H15.4543C15.7559 8.54607 16.0003 8.30161 16.0003 8.00009C16.0003 7.69863 15.7559 7.4541 15.4543 7.4541Z" fill="#333333"/>
<path d="M3.44102 4.21319C3.54759 4.31976 3.68737 4.37305 3.82707 4.37305C3.96676 4.37305 4.10654 4.31976 4.21311 4.21319C4.42634 3.99996 4.42634 3.65424 4.21311 3.44102L3.11561 2.34351C2.90238 2.13029 2.55667 2.13029 2.34351 2.34351C2.13029 2.55674 2.13029 2.90246 2.34351 3.11561L3.44102 4.21319Z" fill="#333333"/>
<path d="M12.5611 11.785C12.3478 11.5717 12.0021 11.5717 11.7889 11.7849C11.5756 11.9981 11.5756 12.3438 11.7888 12.557L12.8862 13.6545C12.9928 13.7611 13.1325 13.8144 13.2723 13.8144C13.412 13.8144 13.5518 13.7611 13.6583 13.6546C13.8716 13.4413 13.8716 13.0956 13.6584 12.8825L12.5611 11.785Z" fill="#333333"/>
<path d="M8.00036 3.75C5.65721 3.75 3.75092 5.65644 3.75092 7.99973C3.75092 10.343 5.65721 12.2493 8.00036 12.2493C10.3437 12.2493 12.2502 10.343 12.2502 7.99973C12.2502 5.65644 10.3437 3.75 8.00036 3.75ZM8.00036 11.1574C6.25932 11.1574 4.84289 9.74085 4.84289 7.99973C4.84289 6.25855 6.25932 4.84197 8.00036 4.84197C9.74162 4.84197 11.1582 6.25855 11.1582 7.99973C11.1582 9.74085 9.74162 11.1574 8.00036 11.1574Z" fill="#333333"/>
</g>
<defs>
<clipPath id="clip0_1323_3609">
<rect width="16" height="16" fill="white"/>
</clipPath>
</defs>
</svg>
