<svg width="16" height="16" viewBox="0 0 16 16" fill="none" xmlns="http://www.w3.org/2000/svg">
<path d="M14.6691 8.96742C14.5259 8.93152 14.3828 8.96742 14.2576 9.05719C13.7924 9.45218 13.2556 9.77536 12.6652 9.99081C12.1106 10.2063 11.5023 10.314 10.8582 10.314C9.40898 10.314 8.08502 9.7215 7.13677 8.76993C6.18852 7.81836 5.5981 6.48976 5.5981 5.03548C5.5981 4.42504 5.70545 3.83255 5.88437 3.29393C6.08117 2.7194 6.36744 2.19873 6.74316 1.74988C6.90418 1.55238 6.8684 1.26512 6.67159 1.10353C6.54635 1.01376 6.40322 0.977852 6.26009 1.01376C4.73931 1.4267 3.41535 2.34236 2.4671 3.56324C1.55464 4.76617 1 6.25636 1 7.89018C1 9.84717 1.78722 11.6246 3.07541 12.9173C4.36359 14.21 6.13485 15 8.08502 15C9.73103 15 11.2518 14.4255 12.4684 13.4739C13.7029 12.5044 14.5975 11.1219 14.9732 9.54195C15.0627 9.27264 14.9196 9.02129 14.6691 8.96742ZM11.9317 12.7198C10.894 13.5457 9.57001 14.0484 8.1208 14.0484C6.42111 14.0484 4.88245 13.3482 3.77318 12.2351C2.66391 11.1219 1.96614 9.57786 1.96614 7.87222C1.96614 6.45385 2.43132 5.16116 3.23643 4.11982C3.79107 3.40165 4.48883 2.80917 5.29395 2.39623C5.20449 2.59372 5.11504 2.79122 5.04347 3.00666C4.81088 3.65301 4.70353 4.33527 4.70353 5.05343C4.70353 6.75907 5.4013 8.32108 6.51057 9.43423C7.61984 10.5474 9.1764 11.2476 10.8761 11.2476C11.6275 11.2476 12.3432 11.1219 13.0052 10.8706C13.2378 10.7808 13.4703 10.691 13.685 10.5833C13.2556 11.4092 12.6652 12.1453 11.9317 12.7198Z" fill="#333333"/>
</svg>
