<svg width="16" height="16" viewBox="0 0 16 16" fill="none" xmlns="http://www.w3.org/2000/svg">
<path d="M14.6691 8.96767C14.5259 8.93176 14.3828 8.96767 14.2576 9.05744C13.7924 9.45243 13.2556 9.7756 12.6652 9.99105C12.1106 10.2065 11.5023 10.3142 10.8582 10.3142C9.40898 10.3142 8.08502 9.72174 7.13677 8.77017C6.18852 7.81861 5.5981 6.49 5.5981 5.03572C5.5981 4.42528 5.70545 3.8328 5.88437 3.29417C6.08117 2.71964 6.36744 2.19897 6.74316 1.75012C6.90418 1.55263 6.8684 1.26536 6.67159 1.10377C6.54635 1.014 6.40322 0.978096 6.26009 1.014C4.73931 1.42695 3.41535 2.34261 2.4671 3.56349C1.55464 4.76641 1 6.2566 1 7.89042C1 9.84742 1.78722 11.6249 3.07541 12.9176C4.36359 14.2103 6.13485 15.0002 8.08502 15.0002C9.73103 15.0002 11.2518 14.4257 12.4684 13.4741C13.7029 12.5046 14.5975 11.1222 14.9732 9.5422C15.0627 9.27289 14.9196 9.02153 14.6691 8.96767ZM11.9317 12.7201C10.894 13.546 9.57001 14.0487 8.1208 14.0487C6.42111 14.0487 4.88245 13.3485 3.77318 12.2353C2.66391 11.1222 1.96614 9.57811 1.96614 7.87247C1.96614 6.4541 2.43132 5.1614 3.23643 4.12006C3.79107 3.4019 4.48883 2.80941 5.29395 2.39647C5.20449 2.59396 5.11504 2.79146 5.04347 3.00691C4.81088 3.65326 4.70353 4.33551 4.70353 5.05368C4.70353 6.75931 5.4013 8.32132 6.51057 9.43447C7.61984 10.5476 9.1764 11.2478 10.8761 11.2478C11.6275 11.2478 12.3432 11.1222 13.0052 10.8708C13.2378 10.781 13.4703 10.6913 13.685 10.5835C13.2556 11.4094 12.6652 12.1455 11.9317 12.7201Z" fill="white"/>
</svg>
