<svg width="20" height="20" viewBox="0 0 20 20" fill="none" xmlns="http://www.w3.org/2000/svg">
<circle cx="10" cy="10" r="10" fill="black"/>
<g clip-path="url(#clip0_388_14838)">
<path d="M14.9485 12.6605L13.2977 14.4044C13.2618 14.4423 13.2184 14.4725 13.1702 14.4931C13.1219 14.5138 13.0699 14.5244 13.0173 14.5244H5.19165C5.15431 14.5244 5.11778 14.5136 5.08655 14.4935C5.05533 14.4733 5.03077 14.4446 5.01588 14.4108C5.001 14.3771 4.99644 14.3398 5.00278 14.3036C5.00911 14.2673 5.02605 14.2337 5.05153 14.2068L6.70357 12.4629C6.73937 12.4252 6.78264 12.395 6.83073 12.3744C6.87883 12.3537 6.93071 12.343 6.98318 12.343H14.8084C14.8457 12.343 14.8822 12.3537 14.9135 12.3739C14.9447 12.394 14.9692 12.4228 14.9842 12.4565C14.999 12.4902 15.0036 12.5275 14.9972 12.5637C14.9909 12.6 14.974 12.6336 14.9485 12.6605ZM13.2977 9.14888C13.2618 9.111 13.2184 9.08079 13.1702 9.06015C13.1219 9.03952 13.0699 9.02888 13.0173 9.02891H5.19165C5.15431 9.02891 5.11778 9.03965 5.08655 9.05982C5.05533 9.07999 5.03077 9.1087 5.01588 9.14243C5.001 9.17617 4.99644 9.21345 5.00278 9.24969C5.00911 9.28593 5.02605 9.31957 5.05153 9.34647L6.70357 11.0903C6.73937 11.1281 6.78264 11.1582 6.83073 11.1789C6.87883 11.1995 6.93071 11.2102 6.98318 11.2103H14.8084C14.8457 11.2103 14.8822 11.1996 14.9135 11.1794C14.9447 11.1592 14.9692 11.1305 14.9842 11.0968C14.999 11.063 15.0036 11.0258 14.9972 10.9895C14.9909 10.9533 14.974 10.9196 14.9485 10.8927L13.2977 9.14888ZM5.19165 7.89625H13.0173C13.0699 7.89627 13.1219 7.88564 13.1702 7.865C13.2184 7.84436 13.2618 7.81415 13.2977 7.77627L14.9485 6.03241C14.974 6.00551 14.9909 5.97188 14.9972 5.93563C15.0036 5.89939 14.999 5.86211 14.9842 5.82837C14.9692 5.79464 14.9447 5.76593 14.9135 5.74576C14.8822 5.72559 14.8457 5.71484 14.8084 5.71484H6.98318C6.93071 5.71493 6.87883 5.72563 6.83073 5.74626C6.78264 5.7669 6.73937 5.79704 6.70357 5.83482L5.05195 7.57869C5.0265 7.60555 5.00957 7.63915 5.00322 7.67535C4.99687 7.71156 5.00139 7.74881 5.01622 7.78253C5.03105 7.81625 5.05555 7.84496 5.08671 7.86516C5.11787 7.88536 5.15434 7.89616 5.19165 7.89625Z" fill="url(#paint0_linear_388_14838)"/>
</g>
<defs>
<linearGradient id="paint0_linear_388_14838" x1="5.84412" y1="14.7343" x2="13.912" y2="5.50096" gradientUnits="userSpaceOnUse">
<stop offset="0.08" stop-color="#9945FF"/>
<stop offset="0.3" stop-color="#8752F3"/>
<stop offset="0.5" stop-color="#5497D5"/>
<stop offset="0.6" stop-color="#43B4CA"/>
<stop offset="0.72" stop-color="#28E0B9"/>
<stop offset="0.97" stop-color="#19FB9B"/>
</linearGradient>
<clipPath id="clip0_388_14838">
<rect width="10" height="8.80952" fill="white" transform="translate(5 5.71484)"/>
</clipPath>
</defs>
</svg>
