<svg width="16" height="16" viewBox="0 0 16 16" fill="none" xmlns="http://www.w3.org/2000/svg">
<g clip-path="url(#clip0_1331_17869)">
<path d="M7.99911 13.3557C7.69758 13.3557 7.45312 13.6002 7.45312 13.9017V15.454C7.45312 15.7556 7.69758 16 7.99911 16C8.30071 16 8.54509 15.7556 8.54509 15.454V13.9017C8.54509 13.6001 8.30064 13.3557 7.99911 13.3557Z" fill="white"/>
<path d="M7.99911 2.64471C8.30071 2.64471 8.54509 2.40025 8.54509 2.09872V0.54623C8.54509 0.2447 8.30071 0.000244141 7.99911 0.000244141C7.69758 0.000244141 7.45312 0.2447 7.45312 0.54623V2.09872C7.45312 2.40025 7.69758 2.64471 7.99911 2.64471Z" fill="white"/>
<path d="M3.44171 11.785L2.34362 12.8825C2.13032 13.0957 2.13025 13.4414 2.3434 13.6546C2.45005 13.7613 2.58983 13.8146 2.7296 13.8146C2.8693 13.8146 3.00892 13.7613 3.11557 13.6548L4.21366 12.5573C4.42696 12.3442 4.42703 11.9985 4.21388 11.7852C4.00058 11.5719 3.65493 11.5719 3.44171 11.785Z" fill="white"/>
<path d="M12.1709 4.3729C12.3106 4.3729 12.4503 4.31961 12.557 4.21303L13.6549 3.11553C13.8681 2.9023 13.8682 2.55666 13.6551 2.34336C13.4418 2.13006 13.0962 2.12999 12.8829 2.34329L11.785 3.44079C11.5717 3.65394 11.5717 3.99966 11.7848 4.21289C11.8914 4.31961 12.0312 4.3729 12.1709 4.3729Z" fill="white"/>
<path d="M2.64432 8.00009C2.64432 7.69856 2.39986 7.4541 2.09833 7.4541H0.545986C0.244456 7.4541 0 7.69856 0 8.00009C0 8.30161 0.244456 8.54607 0.545986 8.54607H2.09833C2.39986 8.54607 2.64432 8.30161 2.64432 8.00009Z" fill="white"/>
<path d="M15.4545 7.4541H13.9015C13.5999 7.4541 13.3555 7.69856 13.3555 8.00009C13.3555 8.30161 13.5999 8.54607 13.9015 8.54607H15.4545C15.7561 8.54607 16.0005 8.30161 16.0005 8.00009C16.0005 7.69863 15.7561 7.4541 15.4545 7.4541Z" fill="white"/>
<path d="M3.44102 4.21294C3.54759 4.31952 3.68737 4.37281 3.82707 4.37281C3.96676 4.37281 4.10654 4.31952 4.21311 4.21294C4.42634 3.99972 4.42634 3.654 4.21311 3.44077L3.11561 2.34327C2.90238 2.13004 2.55667 2.13004 2.34351 2.34327C2.13029 2.55649 2.13029 2.90221 2.34351 3.11537L3.44102 4.21294Z" fill="white"/>
<path d="M12.5611 11.7852C12.3478 11.572 12.0021 11.5719 11.7889 11.7851C11.5756 11.9984 11.5756 12.3441 11.7888 12.5572L12.8862 13.6547C12.9928 13.7614 13.1325 13.8147 13.2723 13.8147C13.412 13.8147 13.5518 13.7614 13.6583 13.6548C13.8716 13.4416 13.8716 13.0959 13.6584 12.8827L12.5611 11.7852Z" fill="white"/>
<path d="M7.99944 3.75024C5.65629 3.75024 3.75 5.65668 3.75 7.99998C3.75 10.3432 5.65629 12.2496 7.99944 12.2496C10.3428 12.2496 12.2493 10.3432 12.2493 7.99998C12.2493 5.65668 10.3427 3.75024 7.99944 3.75024ZM7.99944 11.1576C6.2584 11.1576 4.84197 9.74109 4.84197 7.99998C4.84197 6.25879 6.2584 4.84222 7.99944 4.84222C9.7407 4.84222 11.1573 6.25879 11.1573 7.99998C11.1573 9.74109 9.7407 11.1576 7.99944 11.1576Z" fill="white"/>
</g>
<defs>
<clipPath id="clip0_1331_17869">
<rect width="16" height="16" fill="white"/>
</clipPath>
</defs>
</svg>
