<svg width="42" height="42" viewBox="0 0 42 42" fill="none" xmlns="http://www.w3.org/2000/svg">
<path d="M39.4927 19.9799L35.4375 22.0075L30.1875 11.9534L34.284 9.90517C34.5918 9.75128 34.9477 9.72442 35.2751 9.83036C35.6025 9.9363 35.8752 10.1666 36.0344 10.4716L40.0692 18.1984C40.1499 18.3529 40.199 18.522 40.2136 18.6957C40.2283 18.8693 40.2082 19.0442 40.1545 19.21C40.1009 19.3759 40.0147 19.5294 39.9011 19.6615C39.7875 19.7937 39.6486 19.9019 39.4927 19.9799V19.9799Z" stroke="#333333" stroke-width="2" stroke-linecap="round" stroke-linejoin="round"/>
<path d="M6.56251 21.8317L2.50727 19.8041C2.35137 19.7262 2.21256 19.6179 2.09893 19.4858C1.98531 19.3536 1.89915 19.2001 1.84549 19.0343C1.79183 18.8684 1.77173 18.6936 1.78638 18.5199C1.80103 18.3462 1.85012 18.1772 1.9308 18.0227L5.96558 10.2958C6.12485 9.99079 6.39754 9.76052 6.72493 9.65458C7.05231 9.54863 7.40821 9.5755 7.71598 9.72938L11.8125 11.7776L6.56251 21.8317Z" stroke="#333333" stroke-width="2" stroke-linecap="round" stroke-linejoin="round"/>
<path d="M35.4375 22.0079L32.8125 25.0788L26.7755 31.1158C26.6152 31.2761 26.4162 31.3921 26.1977 31.4526C25.9793 31.5131 25.7489 31.516 25.5291 31.4611L16.0205 29.0839C15.8422 29.0393 15.6752 28.9578 15.5303 28.8445L6.5625 21.832" stroke="#333333" stroke-width="2" stroke-linecap="round" stroke-linejoin="round"/>
<path d="M32.8124 25.0791L25.5936 19.8291L23.4936 21.4041C22.5849 22.0857 21.4796 22.4541 20.3436 22.4541C19.2077 22.4541 18.1024 22.0857 17.1936 21.4041L16.3043 20.7371C16.1539 20.6243 16.0294 20.4804 15.9394 20.3153C15.8494 20.1502 15.7959 19.9677 15.7826 19.7801C15.7693 19.5926 15.7964 19.4043 15.8622 19.2281C15.9279 19.052 16.0308 18.892 16.1637 18.759L22.5842 12.3385C22.7061 12.2166 22.8508 12.12 23.01 12.054C23.1693 11.9881 23.3399 11.9541 23.5123 11.9541H30.1874" stroke="#333333" stroke-width="2" stroke-linecap="round" stroke-linejoin="round"/>
<path d="M11.9067 11.7776L20.3264 9.32296C20.6272 9.23528 20.9494 9.25807 21.2348 9.38722L26.9063 11.9534" stroke="#333333" stroke-width="2" stroke-linecap="round" stroke-linejoin="round"/>
<path d="M18.375 34.9226L13.4302 33.6864C13.2296 33.6362 13.0436 33.5394 12.8875 33.4037L9.1875 30.1875" stroke="#333333" stroke-width="2" stroke-linecap="round" stroke-linejoin="round"/>
</svg>
