<svg width="92" height="92" viewBox="0 0 92 92" fill="none" xmlns="http://www.w3.org/2000/svg">
<path d="M77.625 17.25H14.375C12.7872 17.25 11.5 18.5372 11.5 20.125V71.875C11.5 73.4628 12.7872 74.75 14.375 74.75H77.625C79.2128 74.75 80.5 73.4628 80.5 71.875V20.125C80.5 18.5372 79.2128 17.25 77.625 17.25Z" stroke="#333333" stroke-opacity="0.3" stroke-width="2" stroke-linecap="round" stroke-linejoin="round"/>
<path d="M11.5 60.3755L29.592 42.2835C29.859 42.0165 30.1759 41.8047 30.5247 41.6603C30.8735 41.5158 31.2474 41.4414 31.6249 41.4414C32.0025 41.4414 32.3764 41.5158 32.7252 41.6603C33.074 41.8047 33.3909 42.0165 33.6579 42.2835L49.717 58.3426C49.984 58.6096 50.3009 58.8214 50.6497 58.9658C50.9985 59.1103 51.3724 59.1847 51.7499 59.1847C52.1275 59.1847 52.5013 59.1103 52.8502 58.9658C53.199 58.8214 53.5159 58.6096 53.7829 58.3426L61.217 50.9085C61.484 50.6415 61.8009 50.4297 62.1497 50.2853C62.4985 50.1408 62.8724 50.0664 63.2499 50.0664C63.6275 50.0664 64.0013 50.1408 64.3502 50.2853C64.699 50.4297 65.0159 50.6415 65.2829 50.9085L80.4999 66.1256" stroke="#333333" stroke-opacity="0.3" stroke-width="2" stroke-linecap="round" stroke-linejoin="round"/>
<path d="M56.0625 40.25C58.4442 40.25 60.375 38.3192 60.375 35.9375C60.375 33.5558 58.4442 31.625 56.0625 31.625C53.6808 31.625 51.75 33.5558 51.75 35.9375C51.75 38.3192 53.6808 40.25 56.0625 40.25Z" fill="#333333" fill-opacity="0.3"/>
</svg>
