<svg width="20" height="20" viewBox="0 0 20 20" fill="none" xmlns="http://www.w3.org/2000/svg">
<circle cx="10" cy="10" r="10" fill="white"/>
<g clip-path="url(#clip0_388_14829)">
<path d="M13.1168 7.95151C12.8979 7.82642 12.6164 7.82642 12.3663 7.95151L10.615 8.98349L9.42667 9.64021L7.7067 10.6722C7.48779 10.7973 7.20635 10.7973 6.95617 10.6722L5.61146 9.85911C5.39256 9.73402 5.2362 9.48384 5.2362 9.2024V7.63878C5.2362 7.38861 5.36128 7.13843 5.61146 6.98207L6.95617 6.20026C7.17507 6.07517 7.45652 6.07517 7.7067 6.20026L9.05141 7.01334C9.27031 7.13843 9.42667 7.38861 9.42667 7.67006V8.70204L10.615 8.01405V6.9508C10.615 6.70062 10.4899 6.45044 10.2397 6.29408L7.73797 4.82429C7.51907 4.6992 7.23762 4.6992 6.98744 4.82429L4.42312 6.32535C4.17294 6.45044 4.04785 6.70062 4.04785 6.9508V9.89038C4.04785 10.1406 4.17294 10.3907 4.42312 10.5471L6.95617 12.0169C7.17507 12.142 7.45652 12.142 7.7067 12.0169L9.42667 11.0162L10.615 10.3282L12.335 9.32748C12.5539 9.2024 12.8353 9.2024 13.0855 9.32748L14.4302 10.1093C14.6491 10.2344 14.8055 10.4846 14.8055 10.766V12.3296C14.8055 12.5798 14.6804 12.83 14.4302 12.9863L13.1168 13.7681C12.8979 13.8932 12.6164 13.8932 12.3663 13.7681L11.0216 12.9863C10.8026 12.8612 10.6463 12.6111 10.6463 12.3296V11.3289L9.45794 12.0169V13.0489C9.45794 13.2991 9.58303 13.5492 9.83321 13.7056L12.3663 15.1754C12.5852 15.3005 12.8666 15.3005 13.1168 15.1754L15.6498 13.7056C15.8687 13.5805 16.0251 13.3303 16.0251 13.0489V10.078C16.0251 9.82784 15.9 9.57766 15.6498 9.4213L13.1168 7.95151Z" fill="#8247E5"/>
</g>
<defs>
<clipPath id="clip0_388_14829">
<rect width="12.0085" height="10.4762" fill="white" transform="translate(4.04785 4.76172)"/>
</clipPath>
</defs>
</svg>
