<svg width="42" height="42" viewBox="0 0 42 42" fill="none" xmlns="http://www.w3.org/2000/svg">
<path d="M15.2063 35.4378H7.875C7.5269 35.4378 7.19306 35.2995 6.94692 35.0534C6.70078 34.8072 6.5625 34.4734 6.5625 34.1253V26.7939C6.5625 26.6216 6.59645 26.4509 6.66241 26.2917C6.72837 26.1324 6.82505 25.9877 6.94692 25.8659L26.6344 6.17837C26.8806 5.93223 27.2144 5.79395 27.5625 5.79395C27.9106 5.79395 28.2444 5.93223 28.4906 6.17837L35.8219 13.5097C36.0681 13.7559 36.2063 14.0897 36.2063 14.4378C36.2063 14.7859 36.0681 15.1197 35.8219 15.3659L16.1344 35.0534C16.0125 35.1752 15.8679 35.2719 15.7086 35.3379C15.5494 35.4038 15.3787 35.4378 15.2063 35.4378Z" stroke="#333333" stroke-width="2" stroke-linecap="round" stroke-linejoin="round"/>
<path d="M22.3125 10.5L31.5 19.6875" stroke="#333333" stroke-width="2" stroke-linecap="round" stroke-linejoin="round"/>
<path d="M15.6661 35.3532L6.64598 26.333" stroke="#333333" stroke-width="2" stroke-linecap="round" stroke-linejoin="round"/>
</svg>
