<svg width="28" height="26" viewBox="0 0 28 26" fill="none" xmlns="http://www.w3.org/2000/svg">
<path d="M25.714 1L15.557 8.5L17.4458 4.08L25.714 1Z" fill="#E17726" stroke="#E17726" stroke-width="0.49375" stroke-linecap="round" stroke-linejoin="round"/>
<path d="M2.28574 1L12.3523 8.57L10.554 4.08L2.28574 1Z" fill="#E27625" stroke="#E27625" stroke-width="0.49375" stroke-linecap="round" stroke-linejoin="round"/>
<path d="M22.0575 18.3906L19.355 22.5106L25.1417 24.1006L26.7994 18.4806L22.0575 18.3906Z" fill="#E27625" stroke="#E27625" stroke-width="0.49375" stroke-linecap="round" stroke-linejoin="round"/>
<path d="M1.21091 18.4806L2.85852 24.1006L8.63522 22.5106L5.94278 18.3906L1.21091 18.4806Z" fill="#E27625" stroke="#E27625" stroke-width="0.49375" stroke-linecap="round" stroke-linejoin="round"/>
<path d="M8.3238 11.4309L6.71637 13.8509L12.4428 14.1109L12.252 7.96094L8.3238 11.4309Z" fill="#E27625" stroke="#E27625" stroke-width="0.49375" stroke-linecap="round" stroke-linejoin="round"/>
<path d="M19.6761 11.4306L15.6876 7.89062L15.557 14.1106L21.2835 13.8506L19.6761 11.4306Z" fill="#E27625" stroke="#E27625" stroke-width="0.49375" stroke-linecap="round" stroke-linejoin="round"/>
<path d="M8.63525 22.5095L12.1013 20.8395L9.11748 18.5195L8.63525 22.5095Z" fill="#E27625" stroke="#E27625" stroke-width="0.49375" stroke-linecap="round" stroke-linejoin="round"/>
<path d="M15.8984 20.8395L19.3544 22.5095L18.8822 18.5195L15.8984 20.8395Z" fill="#E27625" stroke="#E27625" stroke-width="0.49375" stroke-linecap="round" stroke-linejoin="round"/>
<path d="M19.3549 22.5098L15.8989 20.8398L16.1802 23.0798L16.1501 24.0298L19.3549 22.5098Z" fill="#D5BFB2" stroke="#D5BFB2" stroke-width="0.49375" stroke-linecap="round" stroke-linejoin="round"/>
<path d="M8.63525 22.5098L11.8501 24.0298L11.83 23.0798L12.1013 20.8398L8.63525 22.5098Z" fill="#D5BFB2" stroke="#D5BFB2" stroke-width="0.49375" stroke-linecap="round" stroke-linejoin="round"/>
<path d="M11.9104 17.0395L9.03714 16.1995L11.0665 15.2695L11.9104 17.0395Z" fill="#233447" stroke="#233447" stroke-width="0.49375" stroke-linecap="round" stroke-linejoin="round"/>
<path d="M16.0903 17.0395L16.9342 15.2695L18.9736 16.1995L16.0903 17.0395Z" fill="#233447" stroke="#233447" stroke-width="0.49375" stroke-linecap="round" stroke-linejoin="round"/>
<path d="M8.63574 22.5087L9.13807 18.3887L5.9433 18.4787L8.63574 22.5087Z" fill="#CC6228" stroke="#CC6228" stroke-width="0.49375" stroke-linecap="round" stroke-linejoin="round"/>
<path d="M18.8629 18.3887L19.3551 22.5087L22.0576 18.4787L18.8629 18.3887Z" fill="#CC6228" stroke="#CC6228" stroke-width="0.49375" stroke-linecap="round" stroke-linejoin="round"/>
<path d="M21.2835 13.8496L15.557 14.1096L16.0895 17.0396L16.9334 15.2696L18.9728 16.1996L21.2835 13.8496Z" fill="#CC6228" stroke="#CC6228" stroke-width="0.49375" stroke-linecap="round" stroke-linejoin="round"/>
<path d="M9.03759 16.1996L11.067 15.2696L11.9109 17.0396L12.4433 14.1096L6.71686 13.8496L9.03759 16.1996Z" fill="#CC6228" stroke="#CC6228" stroke-width="0.49375" stroke-linecap="round" stroke-linejoin="round"/>
<path d="M6.71637 13.8496L9.11747 18.5196L9.0371 16.1996L6.71637 13.8496Z" fill="#E27525" stroke="#E27525" stroke-width="0.49375" stroke-linecap="round" stroke-linejoin="round"/>
<path d="M18.9728 16.1996L18.8824 18.5196L21.2835 13.8496L18.9728 16.1996Z" fill="#E27525" stroke="#E27525" stroke-width="0.49375" stroke-linecap="round" stroke-linejoin="round"/>
<path d="M12.4427 14.1094L11.9102 17.0394L12.5833 20.4994L12.734 15.9394L12.4427 14.1094Z" fill="#E27525" stroke="#E27525" stroke-width="0.49375" stroke-linecap="round" stroke-linejoin="round"/>
<path d="M15.5573 14.1094L15.276 15.9294L15.4167 20.4994L16.0898 17.0394L15.5573 14.1094Z" fill="#E27525" stroke="#E27525" stroke-width="0.49375" stroke-linecap="round" stroke-linejoin="round"/>
<path d="M16.0896 17.0392L15.4165 20.4992L15.8987 20.8392L18.8825 18.5192L18.9729 16.1992L16.0896 17.0392Z" fill="#F5841F" stroke="#F5841F" stroke-width="0.49375" stroke-linecap="round" stroke-linejoin="round"/>
<path d="M9.03714 16.1992L9.11751 18.5192L12.1013 20.8392L12.5835 20.4992L11.9104 17.0392L9.03714 16.1992Z" fill="#F5841F" stroke="#F5841F" stroke-width="0.49375" stroke-linecap="round" stroke-linejoin="round"/>
<path d="M16.15 24.0298L16.1801 23.0798L15.9189 22.8598H12.0812L11.83 23.0798L11.8501 24.0298L8.63525 22.5098L9.76045 23.4298L12.041 24.9998H15.9491L18.2396 23.4298L19.3548 22.5098L16.15 24.0298Z" fill="#C0AC9D" stroke="#C0AC9D" stroke-width="0.49375" stroke-linecap="round" stroke-linejoin="round"/>
<path d="M15.8989 20.84L15.4167 20.5H12.5836L12.1013 20.84L11.8301 23.08L12.0812 22.86H15.919L16.1802 23.08L15.8989 20.84Z" fill="#161616" stroke="#161616" stroke-width="0.49375" stroke-linecap="round" stroke-linejoin="round"/>
<path d="M26.1458 8.99L26.9998 4.85L25.7138 1L15.8984 8.25L19.6759 11.43L25.0106 12.98L26.186 11.61L25.6736 11.24L26.4874 10.5L25.8645 10.02L26.6783 9.4L26.1458 8.99Z" fill="#763E1A" stroke="#763E1A" stroke-width="0.49375" stroke-linecap="round" stroke-linejoin="round"/>
<path d="M1 4.85L1.86399 8.99L1.31144 9.4L2.13525 10.02L1.51237 10.5L2.32613 11.24L1.81376 11.61L2.98919 12.98L8.32385 11.43L12.1013 8.25L2.28594 1L1 4.85Z" fill="#763E1A" stroke="#763E1A" stroke-width="0.49375" stroke-linecap="round" stroke-linejoin="round"/>
<path d="M25.0111 12.9797L19.6765 11.4297L21.2839 13.8497L18.8828 18.5197L22.0575 18.4797H26.7994L25.0111 12.9797Z" fill="#F5841F" stroke="#F5841F" stroke-width="0.49375" stroke-linecap="round" stroke-linejoin="round"/>
<path d="M8.3243 11.4297L2.98965 12.9797L1.21143 18.4797H5.9433L9.11797 18.5197L6.71687 13.8497L8.3243 11.4297Z" fill="#F5841F" stroke="#F5841F" stroke-width="0.49375" stroke-linecap="round" stroke-linejoin="round"/>
<path d="M15.5573 14.1101L15.8989 8.25008L17.4461 4.08008H10.5542L12.1013 8.25008L12.4429 14.1101L12.5735 15.9501L12.5836 20.5001H15.4167L15.4267 15.9501L15.5573 14.1101Z" fill="#F5841F" stroke="#F5841F" stroke-width="0.49375" stroke-linecap="round" stroke-linejoin="round"/>
</svg>
